<svg width="120" height="100" viewBox="0 0 120 100" fill="none" xmlns="http://www.w3.org/2000/svg">
<path d="M1.16692 72.6275C1.89466 71.3955 2.93486 70.3775 4.18232 69.6765C4.29829 69.5992 4.41428 69.5347 4.53671 69.4639V69.3865C4.46576 69.0008 4.41628 68.6115 4.3885 68.2203C4.3885 67.9497 4.62046 66.2874 4.69134 66.0554C4.9297 65.398 5.20066 64.7529 5.50318 64.1225C5.88444 63.5225 6.31551 62.9556 6.79182 62.4279C7.31408 61.9506 7.87673 61.5194 8.47347 61.1393C8.641 61.0426 9.28532 60.772 9.79433 60.5658V60.495C9.52373 58.6716 9.18867 56.9963 9.71057 55.1407C10.0959 53.7612 10.8382 52.5077 11.8626 51.5067C12.8636 50.524 14.0954 49.8084 15.445 49.4256C16.1919 49.268 16.9504 49.1711 17.713 49.1357C19.1495 49.1394 20.56 49.5197 21.8036 50.2388C23.0472 50.9578 24.0805 51.9904 24.8005 53.2335C25.1732 53.9274 25.4692 54.6598 25.6832 55.4177C25.7799 55.785 25.8636 56.1587 25.9474 56.526L26.1793 57.4602H26.3404C27.0234 56.1265 27.7257 54.7928 28.4473 53.4783C28.8661 52.7309 29.2849 51.9771 29.7359 51.2426L29.8326 51.0815C28.9788 49.1955 28.0127 47.3623 26.9396 45.5919C26.611 45.5919 26.2953 45.5919 25.9538 45.521C24.7307 45.4138 23.5165 45.2222 22.3199 44.9476C20.6562 44.4742 19.0472 43.8263 17.5197 43.0146C16.5581 42.5266 15.6361 41.9644 14.762 41.333C12.4639 39.7225 10.3277 37.8926 8.38328 35.8691C6.45379 33.7925 4.66096 31.5929 3.01611 29.2842C2.41045 28.4531 1.81124 27.609 1.27001 26.707C0.674728 25.7267 0.304977 24.6262 0.187561 23.4854C0.0043335 22.4309 0.051712 21.3492 0.326439 20.3148C0.601173 19.2804 1.09673 18.3178 1.77903 17.4932C2.46551 16.5278 3.37364 15.7412 4.42716 15.1995C5.27122 14.8 6.14104 14.4456 7.00443 14.0977C7.9793 13.7036 8.99183 13.41 10.0263 13.2214C11.7582 12.8678 13.5171 12.663 15.2839 12.6093C17.0915 12.6391 18.8942 12.805 20.6768 13.1054C21.7829 13.2488 22.8784 13.464 23.9564 13.7498C25.5917 14.2495 27.1823 14.8852 28.7115 15.6505C29.6258 16.0772 30.503 16.5793 31.3339 17.1517C32.8423 18.125 34.2213 19.2854 35.4382 20.6053C36.2136 21.4824 36.9242 22.4149 37.5644 23.3952C38.1209 24.3234 38.587 25.303 38.9561 26.3204C39.4791 25.0961 40.0707 23.9022 40.728 22.7444C41.7529 21.0384 42.9052 19.4122 44.1751 17.8798C46.2885 15.2574 49.1235 13.1119 51.8296 11.1531C54.0159 9.57508 56.3636 8.23383 58.8333 7.15195C61.9494 5.71635 65.2055 4.60652 68.5496 3.84015C74.901 2.48275 81.4358 2.2061 87.8792 3.02185C91.2452 3.41494 94.5814 4.03053 97.8661 4.86459C98.1148 4.28128 98.4493 3.73836 98.8583 3.25379C99.4526 2.33763 100.277 1.5934 101.249 1.09535C102.506 0.398884 103.916 0.0226933 105.353 0C106.783 0.0154984 108.184 0.396653 109.425 1.10718C110.666 1.81772 111.704 2.83397 112.441 4.05919C112.817 4.71407 113.105 5.41606 113.297 6.14677C113.627 7.17186 113.676 8.26645 113.439 9.31684C113.394 9.70988 113.343 10.1029 113.278 10.4959C113.214 10.8889 113.02 11.34 112.898 11.7846C112.808 12.0681 112.724 12.3516 112.64 12.6351C113.218 12.999 113.762 13.4152 114.264 13.8786C115.078 14.6036 115.683 15.5337 116.016 16.5719C116.539 17.562 116.784 18.6753 116.725 19.7935C116.784 20.7355 116.604 21.6772 116.203 22.5318C117.4 23.5644 118.277 24.9162 118.734 26.4291C119.19 27.942 119.206 29.5536 118.781 31.0754C118.383 32.4353 117.648 33.6728 116.644 34.673C115.641 35.6732 114.401 36.4037 113.04 36.797C112.387 36.9797 111.713 37.0729 111.036 37.074C110.366 38.8866 109.098 40.4164 107.441 41.4103C105.758 42.3891 103.78 42.7298 101.867 42.3703V42.409L100.965 44.5546C100.227 46.1121 99.0514 47.4216 97.5826 48.3238C96.3271 49.0195 94.9198 49.3957 93.4847 49.4192C91.6564 49.4258 89.8784 48.8205 88.434 47.6995C86.9896 46.5785 85.9619 45.0065 85.5145 43.2337C84.9604 43.7492 84.3998 44.2517 83.8135 44.7414C82.5829 45.7723 81.32 46.771 80.0185 47.7117C81.174 48.3002 82.2994 48.9445 83.3947 49.6446C85.8904 51.2412 88.2598 53.0269 90.4822 54.9861C90.9074 55.3533 91.3263 55.7335 91.7386 56.1201C91.9577 56.3327 92.1832 56.5518 92.3829 56.7644C92.5827 56.977 92.6987 57.1574 93.0273 57.6148L93.7102 58.4976C93.9744 59.1419 94.2386 59.7862 94.5092 60.3983C94.6633 61.1243 94.7624 61.861 94.8056 62.6019C94.7994 64.0431 94.4174 65.4578 93.6973 66.7062C93.3479 67.3161 92.914 67.8735 92.4087 68.3621C91.3941 69.307 90.1844 70.0174 88.865 70.4432L88.6459 70.5205C82.6602 73.1816 76.958 76.4547 70.8692 78.8967C63.6732 81.8161 55.7623 82.49 48.1763 80.8296C45.8707 80.2362 43.6352 79.3981 41.5076 78.3297L41.0824 78.1235C40.2963 78.6067 39.5167 79.1029 38.75 79.6183C38.7225 79.6658 38.6988 79.7153 38.6791 79.7665C38.5854 79.9465 38.4777 80.1189 38.3569 80.282C37.9647 80.862 37.5342 81.4152 37.0683 81.9378C37.0512 82.6714 36.8566 83.3899 36.5013 84.0319C36.3737 84.3871 36.223 84.7336 36.0503 85.0692C35.0853 86.6941 33.5836 87.9314 31.8042 88.5679C31.8042 88.7934 31.8686 89.0253 31.8944 89.2509C31.9975 89.9854 32.1006 90.7199 32.1844 91.4544C32.2759 93.0375 31.8826 94.6109 31.0568 95.9646C30.3223 97.1999 29.2779 98.222 28.0271 98.9298C26.7763 99.6375 25.3623 100.006 23.9251 99.9999C22.4879 99.9934 21.0774 99.6117 19.833 98.8927C18.5886 98.1736 17.5536 97.1421 16.8303 95.9002C16.1659 94.5665 15.7013 93.1424 15.4514 91.6735C14.711 91.648 13.975 91.5487 13.2543 91.3771C12.2237 91.1534 11.2729 90.6546 10.5031 89.9338C9.89181 89.5636 9.37726 89.0535 9.00182 88.4455C8.5026 87.9263 8.13189 87.2973 7.91937 86.6091C7.74998 86.267 7.60362 85.9141 7.48124 85.5525C7.48124 85.4752 7.43613 85.3398 7.41035 85.1788C6.96399 85.1277 6.52235 85.0415 6.08952 84.921C5.36796 84.7172 4.67677 84.4182 4.03414 84.0319C3.12635 83.5532 2.35822 82.8472 1.80479 81.9829C1.57283 81.6994 1.35378 81.4031 1.12826 81.1131C0.786606 80.4491 0.502075 79.7571 0.277756 79.0449C-0.0926437 77.6297 -0.0926437 76.1431 0.277756 74.7279C0.459442 73.9846 0.759674 73.2754 1.16692 72.6275ZM25.2708 57.4087L25.142 56.4486C25.1806 56.7644 25.2257 57.0672 25.2708 57.4087ZM29.8133 51.0299L29.4976 50.289L29.8133 51.0299ZM16.3342 91.6219C16.3793 91.9377 16.4243 92.2663 16.463 92.582C16.4243 92.292 16.3793 91.9699 16.3342 91.6477V91.6219Z" fill="#3FE3A8"/>
<path d="M8.19649 76.5388L9.23383 76.2554L11.7145 75.5659L14.7234 74.7347L17.3329 74.0131L18.0288 73.8198L16.4502 72.325L13.2286 69.2516L12.4812 68.5429C12.1719 68.2465 12.4812 67.7761 12.8227 67.9888L15.1809 69.4256L18.9115 71.6936L19.2143 71.874L19.1112 71.0428L18.6473 67.4347L18.0868 63.0726C17.9257 61.784 17.7582 60.5533 17.5971 59.2905C17.5198 58.6462 17.4296 58.0663 17.3651 57.4542C17.3533 57.4126 17.3502 57.369 17.3562 57.3263C17.3622 57.2835 17.3771 57.2424 17.3999 57.2057C17.4227 57.169 17.453 57.1376 17.4888 57.1133C17.5245 57.089 17.5649 57.0725 17.6074 57.0648C17.65 57.0571 17.6936 57.0584 17.7356 57.0686C17.7776 57.0788 17.817 57.0978 17.8512 57.1241C17.8854 57.1505 17.9137 57.1837 17.9343 57.2217C17.9549 57.2597 17.9674 57.3016 17.9708 57.3446C18.0868 57.8343 18.2027 58.324 18.3252 58.8137L19.1499 62.3252C19.4914 63.7491 19.8393 65.1795 20.1808 66.6035L21.0828 70.3018C21.1795 70.6884 21.2697 71.0751 21.3663 71.4616L22.655 69.7864L25.3096 66.3071L25.9539 65.5081C26.2052 65.1731 26.6433 65.5081 26.4629 65.9076L25.258 68.4849L23.3251 72.5376L23.164 72.8791L26.0054 72.6085L27.9384 72.4217C28.5376 71.133 29.1497 69.7928 29.7618 68.4849C31.5401 64.7156 33.3506 60.9528 35.3802 57.306C36.0861 55.9535 36.9006 54.6606 37.8158 53.4401C38.1766 53.0666 38.4032 52.5839 38.4601 52.0677C38.4586 51.6525 38.3708 51.2422 38.2024 50.8628C38.0155 50.3216 37.8093 49.7803 37.5967 49.2456C36.2351 45.8156 34.5069 42.5428 32.4422 39.4842C31.8752 38.6251 31.2845 37.8003 30.6703 37.01C29.6515 37.3969 28.5764 37.6145 27.4874 37.6543C26.3857 37.6795 25.2866 37.5383 24.2271 37.2355C23.136 36.9255 22.0834 36.4932 21.0893 35.9468C20.064 35.3907 19.0838 34.7552 18.1576 34.0461C17.2118 33.3278 16.3083 32.5555 15.4515 31.733C14.6268 30.9534 13.8407 30.1351 13.0869 29.2911C12.333 28.447 11.7402 27.7318 11.1024 26.92C10.5611 26.237 10.0392 25.5411 9.53024 24.8259C9.17586 24.3298 8.82792 23.8272 8.49287 23.3182C8.33179 23.0798 8.17072 22.8414 8.02253 22.5901V22.5579C7.99403 22.5055 7.98682 22.4441 8.00242 22.3865C8.01802 22.3289 8.05521 22.2796 8.10628 22.2487C9.83156 21.391 11.7023 20.8643 13.6217 20.6959C15.2787 20.5442 16.9476 20.5832 18.5958 20.8118C19.7362 20.9609 20.8645 21.1913 21.972 21.5012C22.8561 21.7656 23.7179 22.0995 24.5493 22.4999C26.0126 23.1644 27.3748 24.032 28.5956 25.0772C29.5259 25.8697 30.3165 26.8128 30.9345 27.8671C31.4329 28.7188 31.7898 29.6458 31.9911 30.6119C32.1596 31.4077 32.2224 32.2223 32.178 33.0345C32.1532 33.6431 32.0669 34.2475 31.9203 34.8386C31.8609 35.0986 31.7855 35.3546 31.6947 35.6054C33.4242 37.3623 35.0343 39.2328 36.5143 41.2045C38.362 43.6619 39.945 46.3075 41.2371 49.0974C41.3595 49.3551 41.4755 49.6193 41.5915 49.8834C42.3131 49.0845 43.0455 48.292 43.7886 47.5059L45.1932 46.0111C43.989 42.4455 43.7424 38.6262 44.478 34.9353C45.0763 32.0214 46.1657 29.2303 47.6996 26.6816C48.48 25.3285 49.3884 24.0533 50.4122 22.8736C51.3179 21.8906 52.2864 20.9673 53.3116 20.1095C57.3139 16.6562 61.9925 14.0755 67.0484 12.5324C70.0582 11.5881 73.1597 10.9661 76.3008 10.6767C79.1525 10.4418 82.0186 10.4418 84.8703 10.6767C87.2916 10.8662 89.6993 11.2018 92.0802 11.6819C93.8134 12.0298 95.5402 12.455 97.2347 12.9705C98.053 13.2153 98.8648 13.4731 99.6638 13.7759L99.7669 13.8145C99.9086 13.8725 100.012 14.0723 99.8635 14.1947C99.5966 14.4488 99.349 14.7223 99.1226 15.013C98.6007 15.6122 98.0917 16.2178 97.5826 16.8235L97.0994 17.4034L99.1805 21.2693L99.3481 21.5786L99.6767 20.8054C100.147 19.6907 100.624 18.5761 101.094 17.455L102.814 13.4022L104.296 9.89708C104.535 9.33009 104.767 8.75667 105.018 8.18967C105.027 8.14608 105.045 8.10493 105.072 8.06909C105.098 8.03325 105.132 8.00354 105.171 7.98199C105.21 7.96043 105.253 7.94758 105.298 7.94423C105.342 7.94089 105.387 7.94716 105.428 7.96264C105.47 7.97812 105.508 8.00242 105.54 8.0339C105.571 8.06538 105.595 8.10329 105.611 8.14503C105.626 8.18677 105.633 8.23135 105.629 8.27575C105.626 8.32015 105.613 8.3633 105.592 8.40226C105.45 8.8855 105.302 9.36874 105.16 9.85198L104.11 13.3313L102.821 17.5451C102.456 18.7607 102.091 19.9764 101.726 21.192L101.378 22.3389L103.311 21.5335L107.421 19.8582L108.356 19.4717C108.742 19.3106 108.948 19.8325 108.6 20.0773L106.262 21.6817L102.576 24.2138L102.267 24.4265L104.844 25.6249L109.831 27.938L110.965 28.4663C111.036 28.5071 111.09 28.5715 111.118 28.6481C111.146 28.7247 111.146 28.8087 111.118 28.8854C111.091 28.9622 111.037 29.0267 110.967 29.0679C110.896 29.1091 110.814 29.1242 110.733 29.1106L107.389 28.2473L102.067 26.8684L101.423 26.7073C101.623 27.4032 101.829 28.0991 102.028 28.7949C102.458 30.2253 102.875 31.6557 103.278 33.0861L103.568 34.0783C103.691 34.4843 103.195 34.7226 102.995 34.3811L101.706 31.9521C101.01 30.6635 100.321 29.3748 99.6251 28.0862L99.4576 27.7769L99.129 28.5436C98.6565 29.6647 98.184 30.7816 97.7115 31.8941L95.9976 35.9533L94.5092 39.4584C94.2708 40.0254 94.0389 40.5988 93.7876 41.1658C93.7785 41.2094 93.7602 41.2505 93.7337 41.2864C93.7073 41.3222 93.6735 41.3519 93.6345 41.3735C93.5956 41.395 93.5524 41.4079 93.508 41.4113C93.4636 41.4146 93.419 41.4083 93.3773 41.3929C93.3356 41.3774 93.2976 41.353 93.2661 41.3216C93.2347 41.2901 93.2104 41.2522 93.1949 41.2105C93.1794 41.1687 93.1731 41.1241 93.1764 41.0797C93.1797 41.0353 93.1926 40.9922 93.2142 40.9532L93.6523 39.5035L94.6961 36.0177L95.9847 31.8039C96.3455 30.5926 96.7128 29.3748 97.0801 28.1635C97.1896 27.7834 97.3056 27.3967 97.4216 27.0166L95.4886 27.822L91.4423 29.4844L90.508 29.8709C90.1214 30.032 89.9153 29.5037 90.2696 29.2653L92.6021 27.7125L96.2876 25.1803L96.5968 24.9677L96.1716 24.7744L93.8263 23.6984L92.4474 23.0541C91.1588 24.6262 89.8702 26.2005 88.5815 27.7769C87.6537 28.9109 86.7259 30.0385 85.8045 31.1725C85.1602 31.9714 84.5159 32.7897 83.8329 33.5758C82.4875 35.1499 81.0411 36.635 79.5031 38.0216C76.8916 40.4018 73.9857 42.4372 70.8564 44.0782C68.2953 45.4162 65.5855 46.4478 62.7831 47.1515C60.5199 47.7189 58.2064 48.062 55.876 48.176C54.2252 48.2587 52.5705 48.2092 50.9276 48.0278C50.1358 47.9561 49.35 47.8291 48.5759 47.6477L47.4547 49.0136C45.8268 51.011 44.2589 53.0578 42.7512 55.154C41.2886 57.1965 39.8905 59.2969 38.6018 61.4554C37.3745 63.5019 36.2645 65.6165 35.2772 67.789C35.1225 68.1305 34.9743 68.4784 34.8261 68.8328C35.4704 68.5364 36.1148 68.2529 36.7591 67.9694C37.9833 67.4411 39.2139 66.9235 40.451 66.4166C40.7187 63.9329 41.6048 61.5559 43.0283 59.5031C44.0308 58.0308 45.2223 56.6964 46.572 55.5341C46.8169 55.3279 47.0617 55.1088 47.3259 54.9284C47.8958 54.5715 48.4852 54.2467 49.0913 53.9555C49.7356 53.6269 50.4122 53.3112 51.0887 53.0277C55.8244 51.0036 61.0412 50.3797 66.1206 51.2301C68.3473 51.6008 70.5286 52.2055 72.6282 53.0341C74.5452 53.7876 76.4001 54.6902 78.1758 55.7338C79.6809 56.6191 81.1331 57.5916 82.5249 58.6462C83.5472 59.4236 84.5374 60.2441 85.4952 61.1075C85.9527 61.5198 86.4037 61.9322 86.829 62.3961L86.8741 62.4412C86.9108 62.4732 86.9359 62.5166 86.9452 62.5644C86.9545 62.6123 86.9477 62.6619 86.9256 62.7054C86.8824 62.742 86.8277 62.7625 86.771 62.7634L86.6292 62.8084C86.4746 62.86 86.2813 62.9437 86.1847 62.9824C85.6499 63.2144 85.1215 63.4592 84.5932 63.704C83.0404 64.4192 81.494 65.1666 79.9541 65.9076L75.2828 68.182L72.9568 69.329C70.283 70.6994 67.4764 71.7939 64.5807 72.5956C62.0359 73.2882 59.415 73.6627 56.778 73.7103C54.6638 73.744 52.553 73.5277 50.4895 73.066C48.8716 72.6953 47.2973 72.1554 45.7924 71.4552C44.7336 70.9694 43.7183 70.3938 42.7577 69.7348C42.306 69.4363 41.8754 69.1069 41.4691 68.7491C38.5815 70.2397 35.8039 71.9342 33.1573 73.8198L32.1715 74.5415C32.0823 75.0089 31.9351 75.4634 31.7334 75.8945C31.5271 76.305 31.202 76.6439 30.8005 76.867C30.3989 77.0901 29.9394 77.1871 29.4819 77.1454C29.0244 77.1036 28.5901 76.9251 28.2355 76.6331C27.8809 76.341 27.6224 75.949 27.4938 75.5079C27.312 75.104 27.2345 74.6609 27.2683 74.2193L24.2013 75.0891L23.557 75.2631L25.1356 76.7579L28.3572 79.8313L29.1046 80.5401C29.4139 80.8364 29.1046 81.3068 28.7631 81.0942L26.4049 79.6573L22.6743 77.3893L22.3715 77.2089L22.4746 78.0401L22.9385 81.6483L23.499 86.0168C23.6665 87.2753 23.8298 88.5339 23.9887 89.7924C24.066 90.4368 24.1562 91.0167 24.2207 91.6288C24.2325 91.6703 24.2356 91.7139 24.2296 91.7567C24.2236 91.7994 24.2087 91.8405 24.1859 91.8772C24.163 91.9139 24.1328 91.9454 24.097 91.9697C24.0613 91.9939 24.0209 92.0104 23.9783 92.0181C23.9358 92.0258 23.8922 92.0245 23.8502 92.0143C23.8082 92.0041 23.7688 91.9852 23.7346 91.9588C23.7004 91.9324 23.672 91.8992 23.6514 91.8612C23.6308 91.8232 23.6184 91.7814 23.615 91.7383L23.2606 90.2693L22.4101 86.7319C22.0686 85.308 21.7207 83.8841 21.3792 82.4537L20.4901 78.7553C20.3934 78.3687 20.3032 77.9821 20.2066 77.5955L18.9179 79.2708L16.2633 82.7501C16.0636 83.0207 15.8574 83.2848 15.6512 83.5555C15.4451 83.8261 14.9618 83.5555 15.1422 83.156L16.3471 80.5787L18.2801 76.526L18.4411 76.1909L17.9708 76.236L15.3935 76.4938L12.2879 76.803L9.59467 77.0672C9.15653 77.1123 8.72484 77.1638 8.30603 77.196C8.23189 77.1865 8.16277 77.1534 8.10893 77.1015C8.05509 77.0497 8.01936 76.9819 8.00708 76.9081C7.99479 76.8344 8.00658 76.7587 8.0407 76.6922C8.07481 76.6256 8.12944 76.5719 8.19649 76.5388ZM93.5685 21.6752L94.0711 21.8041L96.687 22.4999L97.3893 22.6804L96.7772 20.5928L96.178 18.5245C95.3017 19.5769 94.4319 20.6271 93.5685 21.6752ZM96.1458 24.0205C96.5388 24.201 96.9448 24.3749 97.3378 24.5682C97.3995 24.5965 97.4518 24.6419 97.4884 24.699C97.525 24.7561 97.5445 24.8225 97.5445 24.8904C97.5445 24.9582 97.525 25.0247 97.4884 25.0818C97.4518 25.1389 97.3995 25.1843 97.3378 25.2125L94.9989 26.8169L93.008 28.1828L96.8288 26.6107L97.7566 26.2306C97.8137 26.2042 97.8774 26.1959 97.9393 26.2067C98.0012 26.2175 98.0583 26.2469 98.1031 26.291C98.1478 26.3351 98.1781 26.3917 98.1899 26.4535C98.2017 26.5152 98.1944 26.579 98.169 26.6365L97.7566 28.0733L96.7128 31.5526C96.2876 32.9572 95.8688 34.3618 95.4242 35.7664V35.8051C95.9267 34.6067 96.4336 33.4061 96.9448 32.2034L98.4396 28.7176C98.678 28.1506 98.9099 27.5707 99.1612 27.0102C99.1794 26.9509 99.215 26.8984 99.2634 26.8597C99.3118 26.8209 99.3708 26.7975 99.4326 26.7927C99.4944 26.7878 99.5563 26.8017 99.6102 26.8324C99.664 26.8631 99.7074 26.9094 99.7347 26.9651L101.023 29.3941L102.144 31.4689L100.965 27.4225L100.675 26.4303C100.653 26.3708 100.647 26.3064 100.659 26.2439C100.67 26.1814 100.698 26.1231 100.739 26.075C100.781 26.0269 100.834 25.9909 100.894 25.9706C100.955 25.9504 101.019 25.9467 101.081 25.9599L104.464 26.7847L107.338 27.5256L102.641 25.3478L101.507 24.8259C101.445 24.7977 101.393 24.7523 101.356 24.6952C101.319 24.6381 101.3 24.5716 101.3 24.5038C101.3 24.4359 101.319 24.3695 101.356 24.3124C101.393 24.2553 101.445 24.2099 101.507 24.1816L103.845 22.5772L105.836 21.2113L102.022 22.777L101.088 23.1636C101.031 23.1899 100.967 23.1982 100.905 23.1874C100.843 23.1766 100.786 23.1472 100.741 23.1032C100.696 23.0591 100.666 23.0024 100.654 22.9407C100.643 22.879 100.65 22.8151 100.675 22.7577L101.113 21.308L102.157 17.8222C102.583 16.4176 103.001 15.013 103.446 13.6084V13.5697L101.919 17.1715L100.431 20.683C100.192 21.25 99.9602 21.8234 99.7089 22.3904V22.4291C99.6784 22.479 99.6364 22.521 99.5865 22.5515C99.5411 22.5801 99.4887 22.5953 99.4351 22.5953C99.3815 22.5953 99.3289 22.5801 99.2836 22.5515C99.2516 22.5326 99.2236 22.5075 99.2015 22.4776C99.1794 22.4477 99.1635 22.4137 99.1548 22.3775L97.8661 19.9936L96.745 17.9188L97.9241 21.9652L98.2141 22.9574C98.2362 23.0169 98.242 23.0813 98.2308 23.1438C98.2196 23.2063 98.1918 23.2646 98.1503 23.3127C98.1088 23.3608 98.0551 23.3968 97.995 23.4171C97.9348 23.4373 97.8702 23.441 97.8081 23.4277L96.7708 23.1571L94.2837 22.5128L91.2683 21.7203H91.2361L93.7489 22.8736L96.1458 24.0205ZM27.7064 74.5801C27.7842 75.2504 28.108 75.868 28.6149 76.3133C28.9386 76.5826 29.3549 76.7145 29.7747 76.6806C30.1795 76.6443 30.5635 76.4846 30.8746 76.223C31.1858 75.9614 31.4091 75.6106 31.5143 75.218C31.5788 74.9925 31.6368 74.7605 31.7012 74.535C31.7115 74.4689 31.7288 74.4042 31.7527 74.3417C31.8236 74.1613 32.062 74.0453 32.2102 73.9358C33.7694 72.7889 35.3759 71.7151 37.0297 70.7142C40.1839 68.8197 43.4673 67.1489 46.8555 65.7143C49.7614 64.4772 52.7317 63.3883 55.7407 62.4476C57.7037 61.8291 59.6839 61.275 61.6813 60.7853L63.5176 60.1989H63.3565C63.0543 60.1969 62.7526 60.2206 62.4545 60.2698L60.7792 60.4245H60.5344H60.4571L60.1607 60.4824C58.4532 60.8239 56.7651 61.1654 55.0964 61.6487C53.4276 62.1319 51.7588 62.6989 50.0965 63.2208L49.7678 63.3303L49.4843 63.427L48.2666 63.878C47.4225 64.1808 46.5785 64.4708 45.7409 64.7865C44.1107 65.4308 42.5193 66.0751 40.8763 66.7194L40.6959 66.7839C39.6263 67.2134 38.5524 67.6601 37.4743 68.124C36.4691 68.5493 35.4769 69.0261 34.4718 69.4449C34.4569 69.4414 34.4415 69.4414 34.4267 69.4449C34.272 69.5158 34.0143 69.3869 34.0916 69.1872C34.9877 67.0129 36.0162 64.8955 37.1714 62.8471C38.3957 60.6693 39.7487 58.5559 41.1533 56.4941C42.5579 54.4323 44.1494 52.3061 45.7473 50.2893C47.3452 48.2726 48.9689 46.2946 50.6892 44.3617C52.4096 42.4287 53.9752 40.689 55.6762 38.8978C57.2484 37.2398 58.8463 35.6097 60.47 34.0075C61.8875 32.6029 63.3221 31.2197 64.774 29.8581C65.9424 28.7627 67.1215 27.6889 68.3113 26.6365L68.801 26.1983L70.779 24.4522L71.3009 24.0141L70.3087 24.42L69.4066 24.7937L69.1747 24.9355C68.2469 25.5282 67.2417 26.0695 66.3977 26.7395L64.5678 28.1442L63.7495 28.7885L63.4982 28.9818C63.4982 28.9818 63.3501 29.1042 63.4467 29.0204L60.5022 31.559C60.1349 31.8683 59.7741 32.2034 59.4197 32.4998L58.8527 33.0152C58.086 33.7175 57.3257 34.4198 56.5718 35.135L56.2755 35.4249L50.4766 41.1401L50.2962 41.3205C49.4972 42.1323 48.7047 42.9442 47.9187 43.756C47.2099 44.497 46.5076 45.2379 45.7988 45.9725L45.7086 46.0691C45.3543 46.4363 44.9999 46.81 44.652 47.1837C44.0076 47.8989 43.3182 48.6077 42.6546 49.3293C42.3389 49.6708 42.0103 50.0252 41.7139 50.3538L41.6752 50.3989C41.6503 50.4222 41.6206 50.4397 41.5881 50.4502C41.5556 50.4607 41.5213 50.4639 41.4874 50.4596C41.4536 50.4553 41.4211 50.4436 41.3923 50.4253C41.3635 50.407 41.3391 50.3826 41.3209 50.3538C40.1073 47.5269 38.5954 44.8377 36.8106 42.332C35.1738 40.0437 33.3576 37.8892 31.379 35.8889L31.2437 35.7535L29.5685 34.1557C29.1755 33.7819 28.7889 33.4082 28.3765 33.0539L26.1665 31.1854L25.8572 30.9212H25.8186L25.6768 30.8245C26.7142 31.8039 27.7129 32.8284 28.66 33.8915L28.7309 33.9688C28.8089 34.0481 28.882 34.132 28.95 34.2201C29.6072 34.9675 30.2407 35.7385 30.8507 36.5332L30.8958 36.5847C31.1535 36.9198 31.4113 37.229 31.6625 37.6027C33.9875 40.786 35.9437 44.2229 37.4936 47.8474C37.7642 48.4917 38.0155 49.0974 38.2603 49.7288C38.477 50.2534 38.6663 50.7889 38.8273 51.3331C38.9836 51.964 38.884 52.6311 38.5503 53.1888C38.3828 53.4723 38.1444 53.7107 37.9511 53.9749C37.5323 54.5483 37.1521 55.1475 36.7849 55.7532C34.6973 59.2196 32.919 62.8858 31.1793 66.5326C30.3868 68.1885 29.6007 69.8508 28.834 71.5196L28.0286 73.2722C27.8105 73.6732 27.6996 74.1237 27.7064 74.5801ZM14.9296 75.8688L17.6229 75.6046C18.061 75.5595 18.4927 75.5079 18.9115 75.4757C18.9751 75.4752 19.0377 75.4914 19.093 75.5228C19.1483 75.5543 19.1943 75.5998 19.2264 75.6547C19.2584 75.7097 19.2754 75.7721 19.2756 75.8357C19.2757 75.8993 19.259 75.9618 19.2272 76.0169L18.0223 78.5942C17.6744 79.3223 17.3329 80.0504 16.9914 80.7785L19.4914 77.4989L20.1357 76.6999C20.1717 76.6485 20.2224 76.6093 20.2812 76.5874C20.34 76.5656 20.404 76.5621 20.4649 76.5775C20.5257 76.5929 20.5804 76.6264 20.6217 76.6736C20.663 76.7207 20.689 76.7794 20.6962 76.8417C20.8122 77.3378 20.9347 77.8275 21.0506 78.3172L21.9011 81.848C22.249 83.2784 22.5927 84.7045 22.932 86.1263V86.1649L22.4295 82.299L21.9462 78.5233C21.8689 77.879 21.7723 77.2991 21.7078 76.687C21.6901 76.6262 21.6919 76.5614 21.7129 76.5017C21.7339 76.4419 21.7732 76.3903 21.8251 76.354C21.877 76.3177 21.939 76.2986 22.0024 76.2994C22.0657 76.3002 22.1272 76.3209 22.1782 76.3584L24.5428 77.7953L26.5531 79.0195L23.4926 76.12L22.7452 75.4113C22.6862 75.3739 22.6397 75.3199 22.6113 75.2561C22.5829 75.1923 22.574 75.1216 22.5857 75.0527C22.5974 74.9839 22.6292 74.92 22.6771 74.8692C22.7249 74.8184 22.7867 74.7828 22.8547 74.767L26.1987 73.8198L27.4874 73.4655V73.4268C27.526 73.3302 27.5647 73.24 27.6098 73.1497L23.9114 73.4977L22.6614 73.6201C22.598 73.622 22.5352 73.6069 22.4796 73.5763C22.4241 73.5457 22.3777 73.5007 22.3455 73.446C22.3132 73.3914 22.2962 73.3291 22.2962 73.2656C22.2963 73.2022 22.3134 73.1399 22.3457 73.0853L23.557 70.508L24.5815 68.3238L22.0815 71.6034L21.4372 72.4023C21.4012 72.4537 21.3505 72.4929 21.2917 72.5148C21.2329 72.5367 21.1689 72.5402 21.108 72.5248C21.0472 72.5094 20.9925 72.4759 20.9512 72.4287C20.9099 72.3815 20.8839 72.3229 20.8766 72.2606L20.5223 70.7851L19.6718 67.2542C19.3303 65.8238 18.9824 64.3999 18.6409 62.976V62.9373L19.1434 66.8032L19.6267 70.5789C19.704 71.191 19.7942 71.8031 19.8651 72.4152V72.4474V72.5312C19.8617 72.5904 19.844 72.6479 19.8135 72.6987C19.7877 72.7463 19.7479 72.7848 19.6995 72.809C19.6511 72.8332 19.5964 72.8419 19.5429 72.834C19.47 72.8326 19.4005 72.8026 19.3496 72.7503L17.0236 71.3392L15.0134 70.115L18.0739 73.0144L18.8213 73.7232C18.8708 73.763 18.9087 73.8155 18.931 73.8751C18.9533 73.9346 18.9592 73.9991 18.948 74.0617C18.9368 74.1243 18.9089 74.1827 18.8674 74.2309C18.8258 74.279 18.7721 74.3151 18.7118 74.3353L17.6744 74.6252L15.1938 75.3082L12.1913 76.1394H12.1526L14.9296 75.8688Z" fill="#353535"/>
</svg>
