<svg width="129" height="116" viewBox="0 0 129 116" fill="none" xmlns="http://www.w3.org/2000/svg">
<path d="M17.6014 18.2197L23.9902 12.7423L18.9035 19.4531L30.5687 19.9728L18.9522 21.24L24.43 27.6288L17.7296 22.5457L17.3179 37.3332L15.9283 22.6014L9.53943 28.0788L14.6262 21.3681L3.61643 20.8206L14.5774 19.5812L9.09967 13.1924L15.8001 18.2755L16.2118 3.48796L17.6014 18.2197Z" fill="white"/>
<path d="M109.467 82.2987L117.023 75.8196L111.004 83.7556L124.813 84.3723L111.072 85.8721L117.548 93.4384L109.615 87.4089L109.142 104.903L107.499 87.4768L99.9431 93.956L105.962 86.0199L92.9263 85.3799L105.894 83.9035L99.4144 76.3478L107.351 82.3667L107.824 64.8728L109.467 82.2987Z" fill="white"/>
<path d="M48.1091 81.7882C44.6722 89.1331 42.1279 94.2107 40.1564 97.7131C39.217 99.4202 38.1553 101.057 36.9796 102.611C36.4951 103.249 35.9465 103.835 35.3422 104.361C34.6134 105.005 33.7251 105.442 32.77 105.626C32.5481 105.661 32.3245 105.685 32.1 105.696C31.4679 105.707 30.8363 105.656 30.2141 105.544C28.0782 105.14 25.9819 104.55 23.9496 103.779L24.3198 104.097C25.6129 105.073 27.0127 105.899 28.4922 106.56C31.3845 107.93 34.4309 108.949 37.566 109.593C37.9743 109.677 38.3924 109.703 38.8079 109.669C39.0752 109.597 39.3199 109.458 39.5195 109.266C39.9105 108.916 40.2668 108.528 40.5836 108.11C41.6433 106.691 42.5999 105.198 43.4461 103.643C45.1058 100.704 47.0836 96.7971 49.3427 92.065C48.4442 90.8904 47.939 89.4625 47.8988 87.9843C47.8452 86.9134 47.9095 84.8301 48.1091 81.7882Z" fill="white"/>
<path d="M77.3866 35.8011C76.8619 35.2848 76.2855 34.8238 75.6665 34.4253C75.6025 36.9991 75.446 40.0199 75.1718 43.4909C75.2266 43.3302 75.4166 42.7729 75.4166 42.7729C76.193 40.2147 76.8496 37.9027 77.3866 35.8011Z" fill="white"/>
<path d="M67.0066 95.0246C67.6548 95.1856 68.3272 95.2242 68.9895 95.1384C69.665 94.9681 70.2882 94.6342 70.8042 94.1662C71.629 93.4623 72.3729 92.6688 73.0222 91.8003C74.8423 89.3546 76.3909 86.718 77.6405 83.9371C80.5725 77.6521 82.694 71.0429 85.4083 64.6597C88.9779 56.2236 92.8088 47.793 95.6891 39.098C97.3841 34.1257 98.3088 29.764 98.175 26.7878C98.1011 25.5175 97.6096 24.3071 96.7769 23.3448C95.8587 22.2699 94.7673 21.3561 93.5478 20.6412C91.3843 19.3266 89.0048 18.4061 86.5199 17.9224C86.2068 17.8681 85.8888 17.848 85.5714 17.8623C84.9889 17.9174 84.4362 18.1456 83.9844 18.5174C83.8851 18.6225 83.8096 18.7477 83.763 18.8845C83.7163 19.0213 83.6996 19.1666 83.7141 19.3104C83.7453 20.5172 84.0687 28.7971 79.0699 44.1979C76.4966 52.6262 73.2254 60.8254 69.2903 68.7104C69.2413 68.8066 69.1632 68.8848 69.067 68.9337C68.9707 68.9826 68.8615 68.9997 68.7549 68.9825C68.657 68.9565 68.5722 68.8949 68.5172 68.8098C68.4621 68.7247 68.4408 68.6221 68.4573 68.5221L68.6082 67.3775C68.71 66.6227 68.8427 65.5316 69.0166 64.1794C69.3607 61.4858 69.8048 57.7617 70.2085 53.6649C71.0839 45.4827 71.8942 35.807 71.6764 29.9194C71.5858 29.1356 71.2111 28.4121 70.6231 27.8858C69.8206 27.0968 68.9088 26.4274 67.9155 25.8982C65.6417 24.6641 63.2114 23.7431 60.6908 23.1602C59.5611 22.8534 58.3882 22.7365 57.2201 22.8144C56.8581 22.9183 56.5399 23.1373 56.3136 23.4383C55.8584 23.9771 55.4653 24.5653 55.1417 25.1919C54.1106 27.2179 53.2172 29.3111 52.4676 31.4572C50.5382 36.6606 48.3323 43.5879 45.6026 50.6476C41.1235 62.2783 38.4762 68.8159 37.5682 70.7073C37.4805 70.9062 37.3824 71.1003 37.2743 71.2889L37.1516 71.4384C37.0794 71.518 36.9814 71.5694 36.8749 71.5834L36.6284 71.4993L36.4683 71.3371C36.4251 71.2559 36.4106 71.1624 36.4272 71.0719C36.631 69.5266 37.1985 67.1602 37.9232 64.2973C38.648 61.4344 39.5407 58.0785 40.4021 54.6043C42.1141 47.6522 43.6722 40.1692 43.4724 35.3165C43.3446 34.6002 42.9826 33.9466 42.4431 33.4584C41.6269 32.6193 40.715 31.8789 39.7261 31.2524C37.4295 29.75 34.941 28.5637 32.3277 27.7255C31.0905 27.2774 29.7742 27.0893 28.461 27.1729C28.2085 27.2134 27.9815 27.3505 27.8282 27.5553C27.6156 27.8328 27.4623 28.151 27.3779 28.4903C27.1698 29.3675 27.0877 30.2699 27.1342 31.1703C27.0932 32.1889 26.9677 33.2024 26.7592 34.2003C26.4913 35.6879 26.0805 37.665 25.545 40.0781C24.4633 44.9006 22.8649 51.4489 20.696 59.25C17.5792 70.5173 15.9559 82.1453 15.8679 93.8354C15.9091 94.2401 16.0642 94.6247 16.3151 94.9448C16.6738 95.4173 17.0922 95.8413 17.5598 96.2064C18.853 97.1758 20.2485 98.0005 21.7215 98.6657C24.6091 100.055 27.6529 101.092 30.7877 101.756C31.196 101.84 31.6141 101.866 32.0296 101.833C32.295 101.761 32.5368 101.621 32.7305 101.426C33.129 101.081 33.4894 100.695 33.8053 100.273C34.865 98.8546 35.8216 97.3619 36.6677 95.8065C38.8565 91.9474 41.5796 86.3807 44.8168 79.4461C48.137 71.9279 51.0329 64.2294 53.4909 56.3869C53.5228 56.2767 53.5901 56.1801 53.6825 56.1121C53.7749 56.0441 53.8872 56.0085 54.0019 56.0108C54.0555 56.015 54.1077 56.03 54.1553 56.055C54.203 56.08 54.245 56.1145 54.2788 56.1562C54.3127 56.198 54.3378 56.2462 54.3524 56.298C54.3671 56.3497 54.371 56.4039 54.3641 56.4572C54.2676 57.477 52.7058 71.8485 52.0594 81.1136C51.8345 84.1948 51.7064 86.7109 51.7554 87.9357C51.7848 88.4137 51.9149 88.8801 52.1372 89.3043C52.3596 89.7285 52.6692 90.1009 53.0456 90.397C53.3222 90.6274 53.6234 90.8263 53.9438 90.9903C54.8975 91.4648 55.9102 91.8101 56.9552 92.0168C59.6991 92.8805 63.5403 94.0344 65.6235 94.6608C66.1096 94.7787 66.5527 94.9177 67.0066 95.0246Z" fill="white"/>
<path d="M104.939 34.668C104.855 33.4024 104.363 32.1981 103.537 31.2356C103.087 30.6828 102.582 30.1779 102.029 29.7288C101.531 33.3419 100.672 36.8961 99.4651 40.3378C97.5283 45.9943 95.3001 51.5469 92.7893 56.9731L92.575 56.9001L92.7893 56.9731C89.8673 63.3692 87.5883 69.4582 85.5611 74.8435C83.9712 79.0862 82.604 82.7109 81.2633 85.5911C79.8892 88.6434 78.1851 91.536 76.1815 94.2174C75.351 95.3116 74.4042 96.3123 73.3577 97.2021C72.1351 98.3945 70.5083 99.0826 68.8011 99.1295C67.9016 99.1537 67.0035 99.045 66.1358 98.8071C64.81 98.4557 63.5273 97.9582 62.3112 97.3238C61.9865 97.1534 61.6797 97.0009 61.4407 96.8597C60.75 96.8156 59.7266 96.7299 58.557 96.5465C58.7554 97.258 59.1719 97.8894 59.7478 98.3519C59.964 98.5235 60.1887 98.684 60.4212 98.8326C61.1847 99.2218 61.9688 99.5689 62.7701 99.8726C66.4829 101.32 70.3377 102.374 74.2707 103.016C74.7254 103.108 75.192 103.126 75.6524 103.068C76.3307 102.905 76.9557 102.57 77.4672 102.096C78.292 101.392 79.036 100.598 79.6852 99.7299C81.5092 97.286 83.0614 94.6506 84.3142 91.8703C87.4535 85.1177 89.7506 77.9583 92.5971 71.0819L100.628 51.5593C102.822 46.3505 105.154 40.423 104.939 34.668Z" fill="white"/>
</svg>
