<svg version="1.2" baseProfile="tiny-ps" xmlns="http://www.w3.org/2000/svg" viewBox="0 0 108 121" width="32" height="36">
	<title>pinsticker-svg</title>
	<defs>
		<clipPath clipPathUnits="userSpaceOnUse" id="cp1">
			<path d="m0 0h108v121h-108v-121z" />
		</clipPath>
	</defs>
	<style>
		tspan { white-space:pre }
		.s0 { fill: #353535 } 
		.s1 { fill: #e0bb2f } 
	</style>
	<g id="Clip-Path" clip-path="url(#cp1)">
		<g id="Layer">
			<path id="Layer" fill-rule="evenodd" class="s0" d="m108 32.37c0.01 0.51-0.06 1.02-0.19 1.51c-0.03 0.51-0.1 1.01-0.21 1.5l-1.08 2.56c-0.43 0.83-1.45 2.01-1.75 2.31c-1.37 1.37-3.08 2.36-4.95 2.87c-0.56 0.15-1.01 0.26-1.39 0.32c-0.36 0.87-0.56 1.39-0.99 1.98c0.07 0.85 0.11 1.71 0.13 2.56c0.11 4.57-0.4 9.18-1.23 13.67c-0.66 3.52-1.75 6.93-3.1 10.24c-1.71 4.17-3.59 8.24-5.67 12.24c-3.26 6.26-6.92 12.31-11.05 18.03c-2.52 3.48-5.16 6.89-7.97 10.14c-0.54 0.63-1.1 1.25-1.66 1.87c-1.13 1.25-2.29 2.61-3.79 3.42c-0.52 0.28-2.1 0.98-2.67 1.13c-0.34 0.09-2.57 0.38-2.91 0.38c-0.02 0-8.4 0-8.42 0c-0.07 0-0.13 0-0.19 0c-0.13 0-0.69-0.06-1.28-0.14c-1.04 0.74-2.2 1.3-3.42 1.64c-2.53 0.71-4.99 0.31-7.42-0.42c-0.68-0.22-1.37-0.41-2.06-0.61l-8.52-2.5c-1.47 0.43-2.94 0.84-4.41 1.27l-6.43 1.89l-0.93 0.27c-0.13 0.04-0.25 0.08-0.37 0.11l-2.84 0.38l-0.12 0.02c-3.88 0.15-7.7-2.27-9.6-5.59c-1.61-2.8-1.81-6.02-0.93-9.09c0.14-0.49 0.3-0.98 0.44-1.47c0.98-3.36 1.96-6.71 2.94-10.06c-0.43-1.47-0.84-2.95-1.27-4.42l-1.88-6.45c-0.09-0.31-0.18-0.62-0.27-0.94c-0.04-0.12-0.08-0.25-0.11-0.37c-0.13-0.95-0.26-1.9-0.38-2.85l-0.01-0.12c-0.15-3.9 2.27-7.72 5.57-9.63c2.25-1.3 4.77-1.69 7.27-1.32c-0.82-2.49-1.46-5.03-1.93-7.6c-0.83-4.7-1.19-9.4-0.81-14.16c0.37-4.49 1.04-9.08 2.69-13.3c0.97-2.46 1.99-4.95 3.39-7.21c0.44-0.71 0.92-1.4 1.43-2.07c1.02-1.35 2.03-2.72 3.17-3.98c1.13-1.24 2.36-2.38 3.68-3.41c2.08-1.63 4.12-3.19 6.45-4.44c0.81-0.43 1.64-0.83 2.48-1.19c1.63-0.71 3.27-1.43 4.95-2.02c1.77-0.62 3.58-1.13 5.42-1.51c2.8-0.58 5.64-0.98 8.5-1.21c1.9-0.16 3.78-0.14 5.69-0.13c2.84 0.01 5.69 0.4 8.49 0.85c1.86 0.29 3.68 0.75 5.45 1.37c0.27 0.1 0.54 0.19 0.81 0.29c0.12-0.04 0.24-0.08 0.33-0.11l2.22-0.3c0.02-0.07 0.04-0.14 0.06-0.22c0.82-2.76 2.51-5.4 5.12-6.81c0.88-0.44 1.78-0.82 2.71-1.13c0.95-0.25 1.94-0.38 2.92-0.38l2.84 0.38c0.99 0.23 1.92 0.62 2.77 1.18l2.16 1.68c0.61 0.71 1.19 1.46 1.72 2.23c0.5 0.85 0.88 1.77 1.13 2.73c0.56 2.1 0.42 3.09 0.14 4.88c0.21 0.11 0.41 0.22 0.61 0.35l2.16 1.68c0.71 0.63 1.3 1.39 1.74 2.23c1.07 1.81 1.12 2.4 1.35 4.15c0.08 0.64 0.16 1.12 0.19 1.58c1.47 0.94 2.7 2.22 3.58 3.72c0.51 0.84 0.9 1.76 1.13 2.71l0.38 2.85zm-10.92-21.19c-0.09 0.63-0.17 1.26-0.25 1.89l0.25-1.89z" />
			<path id="Layer" fill-rule="evenodd" class="s1" d="m74.56 50.54c0.05 0.6 0.07 1.22 0.07 1.83c-0.03 3.74-1.09 7.41-3.05 10.6c-0.43 0.73-0.91 1.43-1.44 2.09c-1.08 1.37-2.36 2.56-3.8 3.54c-1.39 0.94-2.93 1.63-4.56 2.04c-1.67 0.41-3.4 0.5-5.11 0.26c-1.26-0.18-2.5-0.53-3.67-1.05c-0.04-0.01-0.09-0.03-0.12-0.05c-0.33-0.15-0.65-0.31-0.97-0.48c-1.5-0.83-2.87-1.9-4.03-3.16c-1.23-1.33-2.26-2.82-3.07-4.44c-0.86-1.72-1.48-3.54-1.86-5.42c-0.4-2-0.54-4.04-0.4-6.08c0.12-1.97 0.5-3.91 1.13-5.78c0.59-1.77 1.43-3.44 2.47-4.98c0.99-1.46 2.19-2.76 3.57-3.86c1.13-0.9 2.39-1.64 3.74-2.19c0.12-0.06 0.25-0.11 0.38-0.17c2.11-0.84 4.4-1.1 6.64-0.76c0.88 0.14 1.74 0.38 2.57 0.7c0.35 0.12 0.7 0.26 1.05 0.41c1.55 0.69 2.97 1.64 4.21 2.79c0.6 0.56 1.16 1.15 1.68 1.79c0.04 0.05 0.08 0.1 0.12 0.15c0.81 1.01 1.52 2.1 2.1 3.26c0.68 1.33 1.22 2.73 1.6 4.17c0.42 1.57 0.68 3.17 0.76 4.79zm-10-4.21c-0.77-2.9-2.21-5.57-4.2-7.81c-1.84-2.03-4.14-3.64-6.74-4.52c-0.49 0.2-0.96 0.42-1.42 0.68c-1.45 0.81-2.76 1.84-3.89 3.07c-1.18 1.28-2.18 2.73-2.96 4.29c-0.83 1.66-1.43 3.43-1.79 5.25c-0.39 1.94-0.52 3.91-0.39 5.88c0.12 1.92 0.49 3.83 1.1 5.65c0.57 1.71 1.38 3.33 2.39 4.82c0.96 1.41 2.12 2.67 3.44 3.73c0.92 0.73 1.92 1.35 2.99 1.84c0.28-0.1 0.56-0.2 0.84-0.31c2.61-1.04 4.94-2.78 6.78-4.9c1.99-2.3 3.38-5.05 4.07-8.01c0.72-3.19 0.65-6.51-0.22-9.66z" />
			<path id="Layer" fill-rule="evenodd" class="s1" d="m97.22 32.22c0.04 0.08 0.05 0.16 0.04 0.25c-0.02 0.08-0.06 0.16-0.13 0.21c-0.07 0.05-0.15 0.08-0.24 0.08h-0.02c-0.51-0.06-1.02-0.14-1.54-0.21l-3.18-0.43l-3.66-0.49l-3.02-0.41l-0.55-0.07l0.19 0.37l2.22 4.43l1.41 2.8c0.04 0.08 0.05 0.17 0.03 0.26c-0.02 0.09-0.08 0.16-0.15 0.21c-0.08 0.05-0.17 0.07-0.26 0.06c-0.09-0.01-0.17-0.06-0.23-0.13l-0.72-0.89l-2.78-3.46c1.21 3.34 1.86 6.88 2.12 10.42c0.39 4.95 0.06 9.93-0.96 14.79c-0.99 4.66-2.73 9.03-4.77 13.32c-1.72 3.62-3.57 7.17-5.55 10.65c-4.97 8.72-10.78 17.01-17.7 24.29c-0.02 0.02-0.03 0.03-0.05 0.04c-0.01 0.01-0.01 0.01-0.02 0.01l-0.01 0.01c-0.03 0.02-0.05 0.03-0.08 0.03c-0.04 0.01-0.09 0.01-0.13 0h-8.37c-0.08 0-0.16 0-0.24 0c-0.3-0.04-0.46-0.36-0.64-0.57c-0.81-0.97-1.62-1.94-2.41-2.92c-1.52-1.87-3-3.78-4.44-5.71c-1.32-1.76-2.6-3.55-3.84-5.36l-0.28 0.96c0.06 0.17 0.1 0.35 0.15 0.51l0.37 1.24l1.1 3.78l1.27 4.36l1.06 3.61c0.15 0.5 0.29 1 0.44 1.5c0.02 0.07 0.02 0.14 0 0.21c-0.02 0.07-0.06 0.13-0.11 0.18c-0.05 0.05-0.11 0.09-0.18 0.11c-0.07 0.02-0.14 0.02-0.21 0l-0.03-0.01c-0.61-0.15-1.22-0.36-1.82-0.53l-3.77-1.1l-4.34-1.28l-3.61-1.06l-1.38-0.41c-0.17 0.06-0.35 0.1-0.51 0.15l-1.24 0.37l-3.77 1.1l-4.34 1.28l-3.6 1.06l-1.49 0.44c-0.07 0.02-0.14 0.02-0.21 0c-0.07-0.02-0.13-0.06-0.18-0.11c-0.05-0.05-0.09-0.11-0.11-0.18c-0.02-0.07-0.02-0.14 0-0.21c0-0.01 0.01-0.02 0.01-0.03c0.15-0.61 0.36-1.22 0.53-1.83c0.37-1.26 0.73-2.52 1.1-3.78l1.27-4.36l1.06-3.62l0.4-1.38c-0.06-0.17-0.1-0.35-0.15-0.51c-0.12-0.41-0.25-0.83-0.37-1.24c-0.36-1.26-0.73-2.52-1.1-3.78l-1.27-4.36c-0.35-1.21-0.7-2.41-1.05-3.62c-0.15-0.5-0.29-1-0.44-1.5c-0.02-0.07-0.02-0.14 0-0.21c0.02-0.07 0.06-0.13 0.11-0.18c0.05-0.05 0.11-0.09 0.18-0.11c0.07-0.02 0.14-0.02 0.21 0l0.03 0.01c0.61 0.15 1.21 0.36 1.82 0.54l3.77 1.1l4.34 1.28l3.6 1.06l1.38 0.4c0.17-0.06 0.35-0.1 0.51-0.15l1.24-0.37l2.56-0.75c-0.59-1.07-1.16-2.15-1.72-3.24c-2.4-4.71-4.49-9.6-6.01-14.66c-0.87-2.9-1.57-5.87-1.9-8.88c-0.23-2.06-0.24-4.17-0.18-6.23c0.16-5.74 1.34-11.53 4.17-16.57c2.23-3.93 5.38-7.25 9.18-9.69c3.28-2.12 6.95-3.6 10.73-4.56c2.96-0.75 5.98-1.2 9.03-1.36c1.26-0.09 2.51-0.1 3.77-0.03h0.02c1.41-0.01 2.83 0.06 4.23 0.22c3.37 0.37 6.7 1.2 9.78 2.65c2.35 1.1 4.51 2.57 6.4 4.35l-0.93-1.85l-1.41-2.8c-0.04-0.08-0.05-0.17-0.03-0.26c0.02-0.09 0.08-0.16 0.15-0.21c0.08-0.05 0.17-0.07 0.26-0.06c0.09 0.01 0.17 0.06 0.23 0.13l0.72 0.89l3.1 3.85l1.5 1.86l0.34-1.23c0.36-1.3 0.72-2.6 1.08-3.91c0.41-1.51 0.83-3.01 1.24-4.52l1.03-3.73c0.14-0.52 0.28-1.04 0.43-1.55c0.03-0.08 0.09-0.15 0.17-0.19c0.08-0.04 0.17-0.06 0.25-0.04c0.09 0.02 0.16 0.07 0.22 0.14c0.05 0.07 0.08 0.16 0.08 0.24v0.03c-0.08 0.65-0.19 1.3-0.29 1.95c-0.2 1.34-0.4 2.67-0.6 4.01c-0.23 1.55-0.46 3.09-0.69 4.64c-0.19 1.28-0.38 2.55-0.57 3.83l-0.13 0.88l0.36-0.18l4.41-2.23c0.93-0.47 1.86-0.94 2.79-1.41c0.08-0.04 0.17-0.05 0.26-0.03c0.09 0.02 0.16 0.08 0.21 0.15c0.05 0.08 0.07 0.17 0.05 0.26c-0.01 0.09-0.06 0.17-0.13 0.23l-0.89 0.72l-3.84 3.11l-1.87 1.51l0.82 0.25l3.07 0.91l3.54 1.05l2.92 0.87l1.22 0.36c0.08 0.03 0.15 0.09 0.19 0.17zm-60.78 62.39c0.14-0.57 0.33-1.14 0.5-1.7c-2.15-3.19-4.18-6.45-6.06-9.81l-0.03 0.01l-3.41 1l-0.93 0.27c-0.15 0.06-0.31 0.08-0.46 0.06c-0.61-0.15-1.2-0.35-1.8-0.53l-3.76-1.1l-4.36-1.28l-3.61-1.06l-0.8-0.23c0.15 0.51 0.3 1.02 0.45 1.53c0.38 1.31 0.76 2.62 1.15 3.93l1.27 4.35c0.33 1.14 0.66 2.28 1 3.42c0.09 0.31 0.18 0.62 0.27 0.93c0.06 0.15 0.08 0.31 0.06 0.46c-0.15 0.61-0.35 1.21-0.53 1.81c-0.37 1.26-0.73 2.51-1.1 3.77c-0.43 1.46-0.85 2.92-1.28 4.38c-0.35 1.21-0.71 2.41-1.06 3.62l-0.23 0.8l1.53-0.45l3.92-1.15l4.34-1.27l3.41-1l0.93-0.27c0.15-0.06 0.31-0.08 0.46-0.06c0.61 0.15 1.2 0.35 1.8 0.53l3.76 1.1l4.36 1.28l3.61 1.06l0.8 0.23c-0.15-0.51-0.3-1.02-0.45-1.54l-1.15-3.92l-1.27-4.35c-0.33-1.14-0.67-2.28-1-3.42c-0.09-0.31-0.18-0.62-0.27-0.93c-0.06-0.15-0.09-0.31-0.06-0.47zm46.91-61.41l-0.53-0.66c-0.11 0.41-0.22 0.82-0.34 1.23c-0.36 1.3-0.72 2.6-1.08 3.91l-1.25 4.52c-0.34 1.24-0.69 2.49-1.03 3.73l-0.43 1.55c-0.03 0.08-0.09 0.15-0.17 0.19c-0.08 0.04-0.17 0.06-0.25 0.04c-0.09-0.02-0.16-0.07-0.22-0.14c-0.05-0.07-0.08-0.16-0.08-0.24c0-0.01 0-0.02 0-0.03c0.08-0.65 0.19-1.3 0.29-1.95l0.6-4.01c0.23-1.55 0.46-3.09 0.69-4.64l0.57-3.83l0.13-0.88l-0.36 0.18l-4.41 2.23l-2.79 1.41c-0.08 0.04-0.17 0.05-0.26 0.03c-0.09-0.02-0.16-0.08-0.21-0.15c-0.05-0.08-0.07-0.17-0.05-0.26c0.01-0.09 0.06-0.17 0.13-0.23l0.89-0.72l3.84-3.11l1.87-1.52l-0.73-0.22l-6.22-1.88l-3.91-1.18c-0.08-0.03-0.15-0.09-0.19-0.17c-0.04-0.08-0.06-0.17-0.04-0.25c0.02-0.09 0.07-0.16 0.14-0.22c0.07-0.05 0.16-0.08 0.24-0.08l1.47 0.19l6.45 0.84l3.35 0.44l-0.19-0.37c-0.13-0.25-0.26-0.51-0.38-0.76c-1.04-1.16-2.19-2.21-3.44-3.14c-2.57-1.9-5.5-3.26-8.57-4.1c-3.01-0.82-6.12-1.22-9.23-1.19c-0.03 0.01-0.06 0.01-0.09 0.01h-0.33c-0.31 0.01-0.62 0.01-0.94 0.03c-1.05 0.05-2.09 0.17-3.13 0.36c-3.1 0.61-6.05 1.8-8.71 3.5c-0.45 0.28-0.88 0.58-1.31 0.89c-4.56 3.43-7.9 8.37-10.02 13.66c-0.49 1.22-0.92 2.46-1.29 3.72c-0.55 2.13-0.98 4.29-1.28 6.47c-0.65 4.43-0.74 8.95 0.04 13.36c0.55 3.08 1.5 6.09 2.46 9.06l0.05 0.14c0.36 0.96 0.75 1.92 1.16 2.87c0.17 0.37 0.35 0.74 0.52 1.1c0.84 1.73 1.75 3.44 2.68 5.12c1.96 3.54 4.03 7.01 6.17 10.45c1.31 2.11 2.6 4.23 4.03 6.26c1.81 2.57 3.81 5.03 5.74 7.51c1.39 1.77 2.78 3.54 4.18 5.31c1.67-1.77 3.28-3.6 4.83-5.49c5.97-7.27 11.03-15.28 15.38-23.62c1.72-3.29 3.4-6.64 4.8-10.07c2.07-5.06 3.3-10.43 3.63-15.9c0.38-6.48-0.23-13.3-2.85-19.31zm8.99-1.77l-0.04-0.01l-3.54-1.05l-2.92-0.86l-1.22-0.36c-0.07-0.02-0.13-0.05-0.18-0.1c-0.05-0.05-0.08-0.12-0.09-0.19c-0.01-0.07-0.01-0.14 0.02-0.21c0.03-0.07 0.07-0.12 0.13-0.16l0.89-0.72l3.63-2.94l-2.38 1.2l-2.74 1.38c-0.07 0.06-0.15 0.08-0.23 0.08c-0.06 0.01-0.12-0.01-0.18-0.03c-0.06-0.03-0.1-0.07-0.14-0.12c-0.03-0.06-0.05-0.12-0.05-0.18v-0.01c0-0.01 0-0.03 0-0.04c0-0.01 0-0.02 0-0.04v-0.03c0.08-0.65 0.19-1.3 0.29-1.95l0.6-4.01c0.2-1.37 0.41-2.75 0.61-4.12l-0.01 0.04c-0.41 1.51-0.83 3.01-1.25 4.52c-0.34 1.24-0.69 2.49-1.03 3.73l-0.43 1.55c-0.02 0.07-0.05 0.13-0.1 0.18c-0.05 0.05-0.12 0.08-0.19 0.09c-0.07 0.01-0.14 0.01-0.21-0.02c-0.07-0.03-0.12-0.07-0.16-0.13l-0.72-0.89l-2.93-3.64l1.2 2.39l1.41 2.8c0.04 0.06 0.06 0.13 0.05 0.2c0 0.07-0.02 0.14-0.06 0.2c-0.04 0.06-0.1 0.1-0.16 0.13c-0.07 0.03-0.14 0.04-0.21 0.02l-1.47-0.19l-6.07-0.79l3.36 1.01l3.91 1.18c0.07 0.02 0.13 0.05 0.18 0.1c0.05 0.05 0.08 0.12 0.09 0.19c0.01 0.07 0.01 0.14-0.02 0.21c-0.03 0.07-0.07 0.12-0.13 0.16l-0.89 0.72l-3.62 2.94l2.38-1.2l2.79-1.41c0.28-0.14 0.6 0.05 0.55 0.38c0 0.01 0 0.02 0 0.03c-0.08 0.65-0.19 1.3-0.29 1.95l-0.6 4.01c-0.2 1.37-0.41 2.75-0.61 4.12l0.01-0.04l1.24-4.52c0.34-1.24 0.69-2.49 1.03-3.73l0.43-1.55c0.02-0.07 0.05-0.13 0.1-0.18c0.05-0.05 0.12-0.08 0.19-0.1c0.07-0.01 0.14-0.01 0.21 0.02c0.07 0.03 0.12 0.07 0.16 0.13l0.72 0.89c0.98 1.21 1.96 2.42 2.93 3.64l-1.2-2.39l-1.4-2.8c-0.04-0.06-0.06-0.13-0.06-0.2c0-0.07 0.02-0.14 0.06-0.2c0.04-0.06 0.1-0.11 0.16-0.13c0.07-0.03 0.14-0.04 0.21-0.02h0.02c0.51 0.06 1.02 0.14 1.54 0.21l3.18 0.43l3.24 0.45z" />
		</g>
	</g>
</svg>